<svg xmlns="http://www.w3.org/2000/svg" width="640" height="420" viewBox="0 0 640 420" fill="none">
  <defs>
    <linearGradient id="g1" x1="0" y1="0" x2="1" y2="1">
      <stop offset="0%" stop-color="#2563eb"/>
      <stop offset="100%" stop-color="#06b6d4"/>
    </linearGradient>
    <linearGradient id="g2" x1="0" y1="0" x2="0" y2="1">
      <stop offset="0%" stop-color="#0b1220" stop-opacity="0.0"/>
      <stop offset="100%" stop-color="#0b1220" stop-opacity="0.6"/>
    </linearGradient>
    <filter id="blur" x="-20%" y="-20%" width="140%" height="140%">
      <feGaussianBlur stdDeviation="20"/>
    </filter>
  </defs>
  <rect width="640" height="420" rx="24" fill="#0c1526"/>
  <circle cx="520" cy="60" r="90" fill="url(#g1)" opacity="0.35" filter="url(#blur)"/>
  <circle cx="140" cy="340" r="120" fill="#06b6d4" opacity="0.18" filter="url(#blur)"/>
  <g>
    <rect x="56" y="70" width="528" height="280" rx="16" fill="#0a1426" stroke="rgba(230,240,255,0.12)"/>
    <rect x="80" y="110" width="200" height="16" rx="8" fill="#1e40af"/>
    <rect x="80" y="140" width="300" height="12" rx="6" fill="#2563eb" opacity="0.8"/>
    <rect x="80" y="160" width="260" height="12" rx="6" fill="#06b6d4" opacity="0.6"/>
    <rect x="80" y="190" width="160" height="120" rx="12" fill="#0c1b33" stroke="rgba(230,240,255,0.12)"/>
    <rect x="260" y="190" width="160" height="120" rx="12" fill="#0c1b33" stroke="rgba(230,240,255,0.12)"/>
    <rect x="440" y="190" width="120" height="120" rx="12" fill="#0c1b33" stroke="rgba(230,240,255,0.12)"/>
    <rect x="80" y="320" width="140" height="12" rx="6" fill="#2563eb"/>
  </g>
  <rect width="640" height="420" rx="24" fill="url(#g2)"/>
</svg>


